<?xml version="1.0" standalone="no"?>
<!DOCTYPE svg PUBLIC "-//W3C//DTD SVG 20010904//EN"
 "http://www.w3.org/TR/2001/REC-SVG-20010904/DTD/svg10.dtd">
<svg version="1.0" xmlns="http://www.w3.org/2000/svg"
 width="1208.000000pt" height="1193.000000pt" viewBox="0 0 1208.000000 1193.000000"
 preserveAspectRatio="xMidYMid meet">

<g transform="translate(0.000000,1193.000000) scale(0.100000,-0.100000)"
fill="#000000" stroke="none">
<path d="M6570 6900 c-186 -22 -405 -158 -517 -320 -148 -216 -183 -485 -94
-721 90 -238 313 -436 565 -499 90 -23 236 -27 332 -9 249 46 509 264 576 482
37 123 11 229 -83 331 -55 60 -116 96 -214 125 -138 41 -320 43 -435 4 l-55
-18 -3 -157 c-1 -87 1 -158 6 -158 5 0 23 22 40 49 36 59 109 110 202 142 94
33 280 33 361 1 62 -25 109 -66 133 -116 67 -141 -93 -332 -324 -387 -75 -18
-231 -16 -307 4 -231 61 -418 246 -479 477 -23 88 -24 263 -1 350 26 100 89
219 146 276 67 67 129 97 212 102 168 10 340 -97 516 -320 l88 -112 3 234 c2
180 -1 235 -10 242 -16 10 -570 8 -658 -2z"/>
<path d="M2937 6893 c-4 -3 -7 -344 -7 -758 0 -571 3 -754 12 -763 18 -18 367
-17 374 1 3 8 -20 77 -51 153 -166 408 -310 933 -286 1044 6 30 11 35 36 35
25 0 36 -9 63 -50 40 -60 242 -468 377 -760 53 -115 121 -261 150 -323 l54
-112 203 2 203 3 7 435 c7 423 3 956 -8 1053 l-6 47 -189 0 c-177 0 -189 -1
-189 -19 0 -10 24 -69 54 -132 101 -213 187 -500 245 -823 44 -242 40 -310
-18 -291 -15 5 -104 174 -332 636 l-312 629 -187 0 c-103 0 -190 -3 -193 -7z"/>
<path d="M2387 6883 c-4 -3 -7 -345 -7 -759 0 -676 2 -752 16 -758 27 -10 334
-7 355 4 19 10 19 29 19 759 0 674 -2 749 -16 755 -21 8 -359 8 -367 -1z"/>
<path d="M5432 6878 c-9 -9 -12 -182 -12 -749 0 -657 2 -739 16 -753 13 -13
44 -16 182 -16 92 0 173 4 180 8 10 7 12 166 10 763 l-3 754 -180 3 c-132 2
-184 -1 -193 -10z"/>
<path d="M7553 6883 c-10 -4 -13 -164 -13 -753 0 -731 0 -750 19 -760 21 -11
310 -14 348 -4 l22 6 3 322 3 323 29 37 c59 78 134 97 211 51 32 -18 48 -37
66 -77 22 -51 23 -64 27 -353 3 -211 7 -302 16 -307 17 -12 335 -9 357 2 19
10 19 29 19 754 0 620 -2 745 -14 755 -9 8 -69 11 -192 9 l-179 -3 -6 -285
c-6 -308 -8 -322 -62 -378 -56 -59 -145 -63 -212 -10 -55 43 -59 67 -63 378
-3 203 -7 287 -15 292 -13 8 -344 9 -364 1z"/>
<path d="M8747 6883 c-11 -10 -8 -433 2 -433 6 0 53 52 106 115 135 160 242
243 364 279 l54 16 -6 -173 c-15 -398 -104 -760 -301 -1215 -20 -46 -36 -86
-36 -88 0 -2 169 -4 375 -4 l375 0 -25 50 c-194 382 -325 907 -325 1298 l0
125 33 -7 c107 -21 244 -125 378 -286 50 -61 95 -110 100 -110 6 0 8 90 7 218
l-3 217 -546 3 c-300 1 -549 -1 -552 -5z"/>
<path d="M4173 6843 c-9 -21 -18 -77 -21 -126 -4 -85 -3 -90 31 -161 46 -91
161 -205 327 -322 255 -179 372 -293 436 -421 34 -70 39 -88 42 -171 3 -71 0
-103 -13 -138 -19 -51 -38 -64 -93 -64 -68 0 -148 64 -223 179 -57 86 -88 176
-96 279 -5 63 -9 73 -27 78 -12 2 -95 3 -186 2 l-165 -3 -3 -49 c-9 -146 49
-288 167 -406 87 -87 148 -122 257 -150 198 -51 383 -2 521 138 104 105 163
248 163 397 0 155 -57 292 -162 391 -76 71 -163 118 -323 174 -184 65 -315
126 -417 193 -80 54 -138 111 -138 138 0 27 171 29 295 4 278 -56 591 -208
675 -328 43 -61 50 -68 61 -62 5 4 9 101 9 230 0 194 -2 224 -16 229 -9 3
-256 6 -550 6 l-535 0 -16 -37z"/>
<path d="M4663 4601 c-50 -23 -73 -63 -73 -124 0 -128 173 -174 240 -64 69
112 -47 242 -167 188z m107 -73 c37 -40 15 -100 -42 -114 -34 -8 -78 32 -78
71 0 58 79 87 120 43z"/>
<path d="M7765 4600 c-49 -24 -75 -65 -75 -118 0 -118 142 -172 227 -87 28 28
33 40 33 79 0 64 -23 104 -73 127 -53 24 -63 23 -112 -1z m105 -70 c42 -42 11
-113 -50 -113 -61 0 -92 71 -50 113 11 11 33 20 50 20 17 0 39 -9 50 -20z"/>
<path d="M3522 4483 l3 -128 100 0 100 0 0 30 0 30 -67 3 c-52 2 -68 6 -68 17
0 11 14 15 55 15 54 0 55 0 55 30 0 30 -1 30 -55 30 -48 0 -55 2 -55 20 0 18
7 20 70 20 l70 0 0 30 0 30 -105 0 -106 0 3 -127z"/>
<path d="M3872 4483 l3 -128 30 0 c30 0 30 0 35 69 l5 69 48 -71 c43 -66 50
-72 82 -72 l35 0 0 130 0 130 -35 0 -35 0 0 -72 0 -73 -48 72 c-45 69 -49 73
-85 73 l-38 0 3 -127z"/>
<path d="M4378 4518 c-3 -92 -3 -93 -28 -93 -16 0 -28 8 -35 23 -14 32 -65 31
-65 -2 0 -30 35 -75 68 -87 32 -12 87 5 107 34 11 16 15 48 15 119 l0 98 -30
0 -29 0 -3 -92z"/>
<path d="M5000 4524 c40 -68 50 -95 50 -130 0 -45 0 -45 33 -42 31 3 32 5 38
53 3 33 19 74 47 121 23 39 42 74 42 78 0 3 -15 6 -33 6 -30 0 -37 -5 -61 -50
-15 -27 -29 -50 -31 -50 -2 0 -16 22 -32 50 -26 46 -31 50 -65 50 l-37 0 49
-86z"/>
<path d="M5830 4480 l0 -130 100 0 100 0 0 35 0 35 -70 0 c-56 0 -70 3 -70 15
0 12 13 15 55 15 54 0 55 0 55 30 0 30 -1 30 -55 30 -48 0 -55 2 -55 20 0 18
7 20 70 20 l70 0 0 30 0 30 -100 0 -100 0 0 -130z"/>
<path d="M6231 4504 c-60 -154 -60 -154 -22 -154 19 0 34 6 37 15 5 11 21 15
60 15 39 0 56 -4 60 -15 4 -9 19 -15 40 -15 19 0 34 1 34 3 0 1 -22 59 -48
127 l-48 125 -36 3 -36 3 -41 -107z m99 -41 c0 -7 -11 -13 -25 -13 -29 0 -29
0 -13 35 11 25 13 26 25 9 7 -10 13 -24 13 -31z"/>
<path d="M6540 4580 c0 -28 2 -30 40 -30 l40 0 0 -100 0 -100 30 0 30 0 0 100
0 100 40 0 c38 0 40 2 40 30 l0 30 -110 0 -110 0 0 -30z"/>
<path d="M7360 4480 l0 -130 106 0 105 0 -3 33 -3 32 -72 3 -73 3 0 94 0 95
-30 0 -30 0 0 -130z"/>
<path d="M8060 4603 c1 -5 22 -62 48 -128 l47 -120 35 0 34 0 48 125 c26 68
48 126 48 127 0 2 -15 3 -34 3 -33 0 -35 -2 -61 -75 -15 -41 -31 -75 -35 -75
-5 0 -20 34 -35 75 -27 73 -29 75 -61 75 -19 0 -34 -3 -34 -7z"/>
<path d="M8452 4483 l3 -128 103 -3 102 -3 0 36 0 35 -70 0 c-56 0 -70 3 -70
15 0 12 13 15 55 15 54 0 55 0 55 30 0 30 -1 30 -55 30 -48 0 -55 2 -55 20 0
18 7 20 70 20 l70 0 0 30 0 30 -105 0 -106 0 3 -127z"/>
<path d="M5460 4485 l0 -45 45 0 45 0 0 45 0 45 -45 0 -45 0 0 -45z"/>
<path d="M7000 4485 l0 -45 50 0 50 0 0 45 0 45 -50 0 -50 0 0 -45z"/>
</g>
</svg>
